# xmcd CD database file
#
# Track frame offsets:
#	150
#	13575
#	30667
#	47009
#	63666
#	84150
#	114586
#	134551
#	157454
#	174394
#	184516
#	207568
#	230048
#	251078
#	268970
#	286501
#	303793
#
# Disc length: 4264 seconds
#
# Revision: 0
# Processed by: cddbd v1.5.2PL0 Copyright (c) Steve Scherf et al.
# Submitted via: CDex 1.51
#
DISCID=f310a611
DTITLE=Various Artist - Mo's Dave's Jazz
DYEAR=2005
DGENRE=Jazz
TTITLE0=Euge Groove - Don't Let Me Be Lonely Tonight
TTITLE1=Brian Culbertson - Playin'
TTITLE2=Michael Lington - Show Me
TTITLE3=Nick Colionne - It's Been Too Long
TTITLE4=Warren Hill f. Jeff Golub - Wonderful Tonight
TTITLE5=Nestor Torres - Europa
TTITLE6=Boney James f. Shai - I'll Always Love You
TTITLE7=Norman Brown - After Love is Gone
TTITLE8=Chris Botti - Do It In Luxury
TTITLE9=Richard Elliot - Mikayla's Smile
TTITLE10=Marc Antoine - Palm Springs
TTITLE11=David Benoit - Something You Said
TTITLE12=Peter White - Promenade
TTITLE13=Dave Koz - Love Changes Everything
TTITLE14=Jeff Lorber - Gigabyte
TTITLE15=Jimmy Sommers - Take My Heart
TTITLE16=Zachary Breaux - Coming Home Baby
EXTD=YEAR: 2005
EXTT0=
EXTT1=
EXTT2=
EXTT3=
EXTT4=
EXTT5=
EXTT6=
EXTT7=
EXTT8=
EXTT9=
EXTT10=
EXTT11=
EXTT12=
EXTT13=
EXTT14=
EXTT15=
EXTT16=
PLAYORDER=
